<?xml version="1.0" encoding="utf-8"?>
<!-- Generator: Adobe Illustrator 16.0.0, SVG Export Plug-In . SVG Version: 6.00 Build 0)  -->
<!DOCTYPE svg PUBLIC "-//W3C//DTD SVG 1.1//EN" "http://www.w3.org/Graphics/SVG/1.1/DTD/svg11.dtd">
<svg version="1.1" id="圖層_1" xmlns="http://www.w3.org/2000/svg" xmlns:xlink="http://www.w3.org/1999/xlink" x="0px" y="0px"
	 width="512px" height="512px" viewBox="0 0 512 512" enable-background="new 0 0 512 512" xml:space="preserve">
<g>
	<path fill="#50E3C2" d="M137.906,282.494c-11.79,0-21.652-3.174-29.587-9.522c-7.936-6.348-11.903-15.565-11.903-27.66
		c0-9.217,2.267-16.398,6.801-21.538c4.535-5.136,10.39-8.877,17.571-11.223c7.177-2.341,14.772-3.967,22.786-4.875
		c10.882-1.208,18.665-2.302,23.352-3.287c4.683-0.981,7.028-3.589,7.028-7.822v-0.454c0-6.043-1.778-10.73-5.328-14.057
		c-3.553-3.323-8.729-4.988-15.53-4.988c-7.106,0-12.735,1.552-16.891,4.648c-4.159,3.1-6.993,6.766-8.502,10.996l-27.206-3.854
		c3.323-11.336,9.635-19.874,18.931-25.62c9.296-5.742,20.44-8.615,33.441-8.615c5.895,0,11.825,0.719,17.797,2.154
		c5.969,1.438,11.411,3.78,16.324,7.028c4.91,3.252,8.842,7.595,11.79,13.037c2.947,5.441,4.421,12.243,4.421,20.405V280h-28.113
		v-17.004h-0.907c-2.572,5.292-6.84,9.862-12.81,13.717C155.399,280.566,147.577,282.494,137.906,282.494z M145.387,261.182
		c8.917,0,15.945-2.529,21.085-7.596c5.137-5.062,7.708-11.07,7.708-18.023v-14.511c-1.211,1.06-3.479,1.966-6.802,2.721
		c-3.326,0.758-6.84,1.399-10.542,1.927c-3.705,0.531-6.84,1.02-9.409,1.474c-6.5,0.907-11.942,2.685-16.324,5.328
		c-4.386,2.646-6.575,6.767-6.575,12.356c0,5.293,1.962,9.335,5.895,12.13C134.353,259.786,139.341,261.182,145.387,261.182z"/>
	<path fill="#50E3C2" d="M286.179,328.971c-15.723,0-28.078-3.061-37.07-9.183c-8.994-6.121-14.775-13.489-17.343-22.104
		l26.074-6.349c1.813,3.628,4.908,7.142,9.295,10.543c4.381,3.4,10.883,5.101,19.498,5.101c8.311,0,15.189-2.04,20.631-6.121
		s8.162-10.656,8.162-19.725v-23.353h-1.588c-1.512,3.025-3.705,6.122-6.574,9.296c-2.873,3.174-6.652,5.82-11.336,7.935
		c-4.688,2.119-10.582,3.175-17.684,3.175c-9.373,0-17.912-2.229-25.619-6.688c-7.709-4.456-13.831-11.184-18.365-20.178
		c-4.535-8.991-6.802-20.214-6.802-33.668c0-13.451,2.267-24.861,6.802-34.235c4.534-9.37,10.656-16.512,18.365-21.425
		c7.707-4.91,16.322-7.369,25.846-7.369c7.254,0,13.225,1.247,17.91,3.741c4.684,2.494,8.424,5.441,11.223,8.842
		c2.795,3.401,4.875,6.614,6.234,9.636h1.814v-20.405h28.566V282.04c0,10.43-2.494,19.119-7.48,26.073
		c-4.988,6.95-11.869,12.165-20.633,15.644C307.337,327.232,297.363,328.971,286.179,328.971z M286.406,255.287
		c9.369,0,16.586-3.322,21.65-9.976c5.063-6.648,7.596-15.87,7.596-27.659c0-11.79-2.533-21.234-7.596-28.34
		c-5.064-7.103-12.281-10.656-21.65-10.656c-9.676,0-16.969,3.706-21.879,11.109c-4.914,7.407-7.369,16.703-7.369,27.887
		c0,11.336,2.494,20.443,7.482,27.319C269.628,251.851,276.882,255.287,286.406,255.287z"/>
	<path fill="#50E3C2" d="M388.882,138.754c-4.687,0-8.693-1.548-12.016-4.648c-3.327-3.096-4.988-6.763-4.988-10.996
		c0-4.535,1.661-8.311,4.988-11.336c3.322-3.022,7.329-4.535,12.016-4.535c4.534,0,8.463,1.513,11.789,4.535
		c3.323,3.025,4.988,6.801,4.988,11.336c0,4.233-1.665,7.899-4.988,10.996C397.345,137.205,393.416,138.754,388.882,138.754z
		 M374.146,280V156.438h29.246V280H374.146z"/>
</g>
<g>
	<g>
		<path fill="#50E3C2" d="M118.76,388.5h-6.16l11.264-31.988h7.128L142.3,388.5h-6.204l-2.64-7.876H121.4L118.76,388.5z
			 M122.984,375.96h8.888l-4.312-12.892h-0.264L122.984,375.96z"/>
		<path fill="#50E3C2" d="M146.216,388.5v-23.98h5.5v3.961h0.22c0.44-1.379,1.195-2.442,2.266-3.19
			c1.07-0.748,2.295-1.122,3.674-1.122c0.322,0,0.674,0.016,1.056,0.044c0.381,0.03,0.704,0.06,0.968,0.088v5.236
			c-0.235-0.088-0.609-0.169-1.122-0.242s-1.02-0.11-1.518-0.11c-1.526,0-2.802,0.484-3.828,1.453
			c-1.027,0.967-1.54,2.215-1.54,3.739V388.5H146.216z"/>
		<path fill="#50E3C2" d="M173.144,388.984c-2.347,0-4.378-0.521-6.094-1.563c-1.716-1.041-3.044-2.486-3.982-4.334
			c-0.939-1.848-1.408-4.019-1.408-6.512c0-2.465,0.469-4.627,1.408-6.49c0.938-1.862,2.266-3.314,3.982-4.355
			c1.716-1.041,3.747-1.563,6.094-1.563c2.347,0,4.378,0.521,6.094,1.563c1.716,1.041,3.042,2.493,3.982,4.355
			c0.938,1.863,1.408,4.025,1.408,6.49c0,2.493-0.469,4.664-1.408,6.512c-0.939,1.848-2.266,3.293-3.982,4.334
			C177.522,388.463,175.491,388.984,173.144,388.984z M173.188,384.452c1.261,0,2.317-0.353,3.168-1.056
			c0.851-0.705,1.489-1.65,1.914-2.838c0.425-1.188,0.638-2.516,0.638-3.982s-0.213-2.794-0.638-3.982
			c-0.425-1.188-1.063-2.141-1.914-2.859c-0.851-0.719-1.907-1.078-3.168-1.078c-1.291,0-2.369,0.359-3.234,1.078
			c-0.866,0.719-1.511,1.672-1.936,2.859c-0.426,1.188-0.638,2.516-0.638,3.982s0.212,2.794,0.638,3.982
			c0.425,1.188,1.07,2.133,1.936,2.838C170.819,384.099,171.897,384.452,173.188,384.452z"/>
		<path fill="#50E3C2" d="M189.072,388.5v-3.607l12.364-15.488v-0.221h-11.968v-4.664h18.92v3.828l-11.792,15.269v0.176h12.188
			v4.708H189.072z"/>
		<path fill="#50E3C2" d="M242.927,372.484c0,3.461-0.646,6.417-1.936,8.865c-1.291,2.45-3.043,4.328-5.258,5.633
			c-2.215,1.305-4.73,1.957-7.546,1.957c-2.787,0-5.288-0.652-7.502-1.957c-2.215-1.305-3.967-3.183-5.258-5.633
			c-1.291-2.448-1.936-5.404-1.936-8.865c0-3.433,0.645-6.373,1.936-8.822c1.291-2.449,3.043-4.326,5.258-5.633
			c2.214-1.305,4.715-1.957,7.502-1.957c2.816,0,5.331,0.652,7.546,1.957c2.214,1.307,3.967,3.184,5.258,5.633
			C242.282,366.111,242.927,369.052,242.927,372.484z M237.075,372.484c0-3.637-0.822-6.417-2.464-8.338
			c-1.643-1.922-3.784-2.883-6.424-2.883c-2.582,0-4.701,0.961-6.358,2.883c-1.658,1.921-2.486,4.701-2.486,8.338
			s0.828,6.424,2.486,8.359c1.657,1.936,3.776,2.904,6.358,2.904c2.64,0,4.781-0.969,6.424-2.904
			C236.254,378.908,237.075,376.121,237.075,372.484z"/>
		<path fill="#50E3C2" d="M265.763,365.312c-0.147-1.379-0.755-2.449-1.825-3.213c-1.072-0.762-2.473-1.144-4.203-1.144
			c-1.818,0-3.233,0.396-4.246,1.188c-1.012,0.791-1.533,1.789-1.562,2.992c0,0.879,0.271,1.613,0.814,2.199
			c0.542,0.588,1.232,1.049,2.068,1.387c0.836,0.337,1.694,0.608,2.574,0.813l2.992,0.748c1.613,0.382,3.131,0.938,4.554,1.672
			s2.589,1.716,3.498,2.948s1.364,2.771,1.364,4.619c-0.029,2.816-1.107,5.098-3.234,6.843s-5.097,2.618-8.91,2.618
			c-3.725,0-6.703-0.865-8.932-2.596c-2.229-1.73-3.403-4.181-3.52-7.349h5.72c0.117,1.672,0.806,2.919,2.068,3.739
			c1.261,0.822,2.8,1.232,4.621,1.232c1.876,0,3.409-0.418,4.598-1.254c1.188-0.836,1.781-1.928,1.781-3.277
			c0-1.262-0.527-2.207-1.584-2.838c-1.056-0.631-2.449-1.166-4.18-1.606l-3.607-0.925c-2.641-0.674-4.724-1.708-6.249-3.102
			c-1.525-1.393-2.288-3.234-2.288-5.521c0-1.877,0.506-3.527,1.518-4.95c1.012-1.423,2.405-2.522,4.18-3.3
			c1.774-0.777,3.791-1.166,6.049-1.166s4.246,0.389,5.963,1.166c1.716,0.777,3.064,1.863,4.048,3.256
			c0.982,1.394,1.488,3,1.519,4.818H265.763z"/>
		<path fill="#50E3C2" d="M298.674,388.5H287.85v-31.988h11.044c3.168,0,5.896,0.639,8.185,1.914
			c2.287,1.276,4.047,3.102,5.279,5.479c1.232,2.375,1.848,5.236,1.848,8.58c0,3.314-0.615,6.175-1.848,8.58
			s-3.007,4.246-5.324,5.521C304.717,387.861,301.93,388.5,298.674,388.5z M293.614,383.484h4.797c6.688,0,10.031-3.667,10.031-11
			c0-7.305-3.285-10.957-9.855-10.957h-4.973V383.484z"/>
		<path fill="#50E3C2" d="M330.09,388.984c-2.436,0-4.518-0.506-6.248-1.519c-1.731-1.012-3.066-2.442-4.004-4.29
			c-0.939-1.848-1.408-4.033-1.408-6.556c0-2.464,0.469-4.627,1.408-6.49c0.938-1.862,2.258-3.321,3.959-4.378
			s3.697-1.584,5.984-1.584c1.965,0,3.784,0.426,5.457,1.275c1.672,0.852,3.006,2.172,4.004,3.961
			c0.996,1.789,1.496,4.092,1.496,6.908v1.715h-16.721c0.029,2.055,0.602,3.66,1.716,4.818c1.114,1.159,2.581,1.738,4.4,1.738
			c1.231,0,2.295-0.264,3.19-0.792c0.895-0.528,1.531-1.305,1.914-2.332l5.279,0.616c-0.499,2.083-1.665,3.755-3.498,5.016
			C335.186,388.353,332.876,388.984,330.09,388.984z M324.018,374.244h11.309c-0.03-1.643-0.543-2.992-1.541-4.049
			c-0.997-1.055-2.303-1.584-3.916-1.584c-1.701,0-3.08,0.559-4.136,1.673S324.106,372.719,324.018,374.244z"/>
		<path fill="#50E3C2" d="M366.258,364.519l-8.537,23.98h-6.248l-8.535-23.98h6.027l5.5,17.82h0.265l5.544-17.82H366.258z"/>
		<path fill="#50E3C2" d="M389.094,370.855l-5.148,0.572c-0.205-0.791-0.668-1.496-1.387-2.111
			c-0.719-0.616-1.737-0.924-3.058-0.924c-1.173,0-2.155,0.256-2.948,0.77c-0.791,0.514-1.188,1.182-1.188,2.002
			c0,0.704,0.264,1.275,0.792,1.716s1.393,0.792,2.596,1.056l4.093,0.881c4.516,0.968,6.775,3.139,6.775,6.512
			c0,1.496-0.439,2.823-1.32,3.982c-0.88,1.158-2.09,2.061-3.63,2.705s-3.308,0.969-5.302,0.969c-2.963,0-5.332-0.623-7.105-1.871
			c-1.775-1.246-2.838-2.969-3.19-5.17l5.5-0.527c0.499,2.2,2.097,3.3,4.796,3.3c1.32,0,2.391-0.278,3.212-0.836
			c0.821-0.557,1.231-1.246,1.231-2.067c0-1.32-1.07-2.229-3.211-2.729l-4.092-0.836c-2.318-0.498-4.027-1.313-5.127-2.441
			s-1.65-2.574-1.65-4.334c0-1.496,0.411-2.787,1.232-3.873c0.821-1.084,1.959-1.928,3.41-2.529
			c1.452-0.602,3.146-0.902,5.082-0.902c2.816,0,5.03,0.602,6.645,1.805C387.714,367.176,388.711,368.802,389.094,370.855z"/>
		<path fill="#50E3C2" d="M397.849,388.851c-0.938,0-1.745-0.337-2.42-1.012c-0.675-0.674-1.012-1.48-1.012-2.42
			c0-0.938,0.337-1.744,1.012-2.42c0.675-0.674,1.481-1.012,2.42-1.012s1.745,0.338,2.421,1.012c0.674,0.676,1.012,1.481,1.012,2.42
			c0,0.939-0.338,1.746-1.012,2.42C399.594,388.514,398.787,388.851,397.849,388.851z"/>
	</g>
</g>
<ellipse transform="matrix(0.9572 -0.2893 0.2893 0.9572 -16.9124 119.0528)" fill="#50E3C2" cx="394.258" cy="116.735" rx="69.308" ry="20.189"/>
</svg>
